<?xml version="1.0" encoding="UTF-8"?>
<svg id="icon" xmlns="http://www.w3.org/2000/svg" viewBox="0 0 30 30">
  <path d="M22.5,0H7.5C4.7,0,2.5,2.2,2.5,5v20c0,2.8,2.2,5,5,5h15c2.8,0,5-2.2,5-5V5c0-2.8-2.2-5-5-5ZM25.5,25c0,1.7-1.3,3-3,3H7.5c-1.7,0-3-1.3-3-3V5c0-1.7,1.3-3,3-3h15c1.7,0,3,1.3,3,3v20Z"/>
  <rect x="6.5" y="16.92" width="17" height="2" rx="1" ry="1"/>
  <rect x="6.5" y="20.51" width="17" height="2" rx="1" ry="1"/>
  <rect x="6.5" y="24.1" width="17" height="2" rx="1" ry="1"/>
  <path d="M22,4h-14c-.83,0-1.5.67-1.5,1.5v8c0,.83.67,1.5,1.5,1.5h14c.83,0,1.5-.67,1.5-1.5V5.5c0-.83-.67-1.5-1.5-1.5ZM13.9,6.41l-3.18,6.77c-.12.25-.36.39-.61.39-.1,0-.19-.02-.29-.06-.34-.16-.48-.56-.33-.9l2.73-5.8h-3.01c-.37,0-.68-.3-.68-.68s.3-.68.68-.68h4.08c.23,0,.45.12.57.31.12.2.14.44.04.65ZM20.79,13.55h-4.76c-.25,0-.48-.14-.6-.36-.12-.22-.1-.49.05-.7l4.01-5.7h-3.11c-.37,0-.68-.3-.68-.68s.3-.68.68-.68h4.42c.25,0,.48.14.6.36.12.22.1.49-.05.7l-4.01,5.7h3.46c.37,0,.68.3.68.68s-.3.68-.68.68Z"/>
</svg>