<svg xmlns="http://www.w3.org/2000/svg" viewBox="0 0 24 24"><path d="M8.75,14.5c1.54,0,2.82,1.07,3.16,2.5h9.34c.41,0,.75.34.75.75,0,.38-.28.69-.65.74h-.1s-9.34,0-9.34,0c-.34,1.43-1.63,2.5-3.16,2.5s-2.82-1.07-3.16-2.5h-2.84c-.41,0-.75-.34-.75-.75,0-.38.28-.69.65-.74h.1s2.84,0,2.84,0c.34-1.43,1.63-2.5,3.16-2.5ZM15.25,3c1.54,0,2.82,1.07,3.16,2.5h2.84c.41,0,.75.34.75.75,0,.38-.28.69-.65.74h-.1s-2.84,0-2.84,0c-.34,1.43-1.63,2.5-3.16,2.5s-2.82-1.07-3.16-2.5H2.75c-.41,0-.75-.34-.75-.75,0-.38.28-.69.65-.74h.1s9.34,0,9.34,0c.34-1.43,1.63-2.5,3.16-2.5Z"/></svg>
